<svg width="30" height="30" viewBox="0 0 30 30" fill="none" xmlns="http://www.w3.org/2000/svg">
<g clip-path="url(#clip0)">
<path d="M17.0254 29.9413H12.2118C11.4078 29.9413 10.7537 29.2885 10.7537 28.4861V17.6499H7.94535C7.14132 17.6499 6.48727 16.9969 6.48727 16.1947V11.5513C6.48727 10.7489 7.14132 10.0961 7.94535 10.0961H10.7537V7.77088C10.7537 5.46536 11.4791 3.50384 12.8512 2.09873C14.2294 0.687218 16.1556 -0.0587082 18.4214 -0.0587082L22.0925 -0.0527573C22.8951 -0.051384 23.548 0.601387 23.548 1.40247V5.71369C23.548 6.51615 22.8942 7.16892 22.0904 7.16892L19.6187 7.16984C18.8649 7.16984 18.6729 7.32067 18.6319 7.36691C18.5642 7.44358 18.4837 7.66033 18.4837 8.25886V10.0959H21.9047C22.1622 10.0959 22.4117 10.1593 22.6261 10.2787C23.0887 10.5367 23.3763 11.0244 23.3763 11.5516L23.3744 16.1949C23.3744 16.9969 22.7204 17.6497 21.9164 17.6497H18.4837V28.4861C18.4837 29.2885 17.8295 29.9413 17.0254 29.9413ZM12.5159 28.1826H16.7213V16.8625C16.7213 16.3267 17.1582 15.8909 17.6948 15.8909H21.6123L21.6139 11.8548H17.6946C17.158 11.8548 16.7213 11.419 16.7213 10.8832V8.25886C16.7213 7.57175 16.7913 6.79035 17.311 6.20304C17.9389 5.49305 18.9284 5.41111 19.6182 5.41111L21.7859 5.41019V1.70551L18.42 1.70002C14.7787 1.70002 12.5159 4.02638 12.5159 7.77088V10.8832C12.5159 11.4188 12.0793 11.8548 11.5426 11.8548H8.24944V15.8909H11.5426C12.0793 15.8909 12.5159 16.3267 12.5159 16.8625V28.1826ZM22.089 1.70597H22.0893H22.089Z" fill="white"/>
</g>
<defs>
<clipPath id="clip0">
<rect width="30" height="30" fill="white"/>
</clipPath>
</defs>
</svg>
