<svg width="24" height="24" viewBox="0 0 24 24" fill="none" xmlns="http://www.w3.org/2000/svg">
<path d="M11.3471 16.2566L11.3471 16.2567C12.0686 16.7728 15.3983 18.9747 16.0595 19.4116C16.5416 19.7298 16.9453 19.8925 17.2774 19.8925C17.5707 19.8925 17.8198 19.7656 18.0301 19.4739C18.2442 19.177 18.4166 18.7107 18.5411 18.0407C18.9959 15.5929 19.5304 12.1184 19.9108 9.6453C20.0789 8.55186 20.217 7.65419 20.3048 7.12757C20.4294 6.37963 20.4313 5.86908 20.3116 5.54929C20.2533 5.39327 20.1671 5.28606 20.0535 5.21631C19.9385 5.14567 19.7863 5.108 19.5874 5.108C19.1114 5.108 18.4125 5.32235 17.4473 5.72334L17.4089 5.631L17.4473 5.72335C17.4134 5.73744 17.3722 5.75453 17.3241 5.77451C15.9683 6.33741 9.1013 9.1885 3.7532 11.541C3.41142 11.6914 3.13888 11.8414 2.94365 11.9875C2.7457 12.1356 2.64057 12.2699 2.60975 12.3847C2.58211 12.4876 2.60933 12.5953 2.7367 12.7145C2.86821 12.8376 3.09809 12.9631 3.44887 13.0834L3.44893 13.0834C3.48049 13.0943 3.51625 13.1066 3.55584 13.1203C3.98057 13.2668 4.84758 13.566 5.73353 13.8204L5.73357 13.8204C6.16135 13.9435 6.52137 13.9975 6.83742 13.9975C7.45179 13.9975 7.91336 13.7929 8.39676 13.4648C8.89112 13.1287 12.7702 10.5538 15.5666 8.69918L11.3471 16.2566ZM11.3471 16.2566C11.3207 16.2378 11.2941 16.2189 11.2674 16.2C11.1248 16.0988 10.9794 15.9956 10.8479 15.8833C10.6919 15.75 10.5636 15.6104 10.4887 15.4579C10.4153 15.3088 10.3914 15.1443 10.4486 14.9524C10.5069 14.7569 10.6516 14.5261 10.9303 14.2535L10.9304 14.2535M11.3471 16.2566L10.9304 14.2535M10.9304 14.2535C11.3363 13.8561 13.999 11.3133 16.0744 9.33335L16.0745 9.33332M10.9304 14.2535L16.0745 9.33332M16.0745 9.33332C16.219 9.19536 16.2322 9.01499 16.1665 8.87276M16.0745 9.33332L16.1665 8.87276M5.70592 13.9165C6.14042 14.0415 6.50992 14.0975 6.83742 14.0975C7.47842 14.0975 7.95942 13.8825 8.45292 13.5475L5.70592 13.9165ZM5.70592 13.9165C4.81728 13.6613 3.94789 13.3613 3.52326 13.2148M5.70592 13.9165L3.52326 13.2148M16.8344 4.245L16.7961 4.15262C18.0443 3.63502 18.8829 3.408 19.5874 3.408C20.5748 3.408 21.165 3.85494 21.4861 4.23273L21.4862 4.23284C22.2473 5.13074 22.1568 6.36087 21.9826 7.40645C21.8962 7.92415 21.7603 8.80734 21.5948 9.88567L21.5948 9.8857L21.5936 9.89349C21.2052 12.4183 20.6736 15.8749 20.2132 18.3508C20.2132 18.3508 20.2132 18.3508 20.2132 18.3508L20.1149 18.3325C19.6299 20.9435 18.3044 21.4915 17.2784 21.4915L16.8344 4.245ZM16.8344 4.245L16.7961 4.15262L16.6466 4.21462L16.6466 4.21464C11.3287 6.42279 6.50653 8.47208 3.06866 9.98447L3.06862 9.98448L3.06574 9.98575C2.79631 10.1044 2.24363 10.3478 1.76551 10.7538C1.28465 11.1622 0.868506 11.7446 0.902009 12.5382L16.8344 4.245ZM16.1665 8.87276C16.1032 8.73557 15.9629 8.627 15.7954 8.627M16.1665 8.87276L15.7954 8.627M15.7954 8.627C15.7186 8.627 15.64 8.65047 15.5667 8.69916L15.7954 8.627ZM3.52326 13.2148C3.48366 13.2012 3.44794 13.1888 3.41642 13.178L3.52326 13.2148ZM0.902011 12.5382C0.902011 12.5382 0.902012 12.5382 0.902012 12.5382L1.00192 12.534L0.902011 12.5382Z" fill="white" stroke="white" stroke-width="0.2"/>
</svg>
